# xmcd
#
# Track frame offsets: 
#        150
#        19428
#        39753
#        54453
#        65991
#        92792
#        121578
#        142950
#        157422
#        170401
#        184484
#        203492
#        220382
#        237393
#        258931
#        279771
#        295766
#        313045
#
# Disc length: 4232 seconds
#
# Revision: 0
# Processed by: cddbd v1.5.2PL0 Copyright (c) Steve Scherf et al.
# Submitted via: ExactAudioCopy v1.0b1
#
DISCID=0c108612
DTITLE=Jerry Jeff Walker - Contrary To Ordinary
DYEAR=1977
DGENRE=Country
TTITLE0=Tryin' To Hold The Wind Up With A Sail
TTITLE1=Saturday Night Special
TTITLE2=Suckin' A Big Bottle Of Gin
TTITLE3=What Are We Doing?
TTITLE4=Till I Gain Control Again
TTITLE5=Contrary To Ordinary
TTITLE6=We Were Kinda Crazy Then
TTITLE7=Deeper Than Love
TTITLE8=I Spent All My Money Lovin' You
TTITLE9=Carry Me Away
TTITLE10=Honky Tonk Music
TTITLE11=Railroad Lady
TTITLE12=Ro-Deo-Deo Cowboy
TTITLE13=Derby Day
TTITLE14=Long Afternoons
TTITLE15=Rockin' Chair
TTITLE16=My Buddy
TTITLE17=The Stranger (He Was The Kind) Reprise
EXTD=
EXTT0=
EXTT1=
EXTT2=
EXTT3=
EXTT4=
EXTT5=
EXTT6=
EXTT7=
EXTT8=
EXTT9=
EXTT10=
EXTT11=
EXTT12=
EXTT13=
EXTT14=
EXTT15=
EXTT16=
EXTT17=
PLAYORDER=
